<svg version="1" xmlns="http://www.w3.org/2000/svg" width="682.667" height="682.667" viewBox="0 0 512.000000 512.000000"><path d="M62.3 89.2c-2.9 3.3-3.6 6.3-2.3 10.3 1.4 4.3 5.3 6.5 11.5 6.5H76V192.7l-2.6 2.4c-8.4 7.7-6.8 24.3 2.8 30.7 5.6 3.7 13 3.7 18.6 0 9.7-6.5 11.2-22.9 2.6-30.9l-2.4-2.2V106h44.9l.3 43.1.3 43.1 2.9 2.5 2.9 2.4 107.6-.6c59.2-.3 109.1-.8 110.8-1.1 6.2-.9 6.3-1.5 6.3-47.9V106h38.3c42.4 0 41.5.1 43.7-6.5 1.3-4 .6-7.1-2.3-10.3l-2-2.2H64.3l-2 2.2z"/><path d="M189.5 207.9c-6.3 2.6-8 10.6-3.1 14.7 1.5 1.3 3.8 2.4 5.2 2.4h2.4v28.5c0 25.3-.2 28.5-1.6 28.5-.8 0-2.9 1.4-4.6 3-2.7 2.7-3 3.6-2.5 7.3 1.1 8.4-9.8 7.7 120.3 7.7 102.1 0 115.9-.2 119.2-1.6 12.2-5 19.5-21.8 19.5-44.4 0-17.6-4.4-31.7-12.4-39.8-7.1-7.3 3.4-6.7-124.9-6.9-63.5-.1-116.4.2-117.5.6zM98.3 315.1c-7.7 3.8-13 12.5-17 27.8-3.5 13.3-4.4 39.1-1.9 54 2.6 15.6 6.9 26.5 13 32.9 6.2 6.7-5.5 6.2 151.5 6.2h142.9l2.6-3.1c5.1-6 3.3-17.5-3-19.9l-2.4-1v-37.5c0-31 .2-37.5 1.4-37.5.7 0 2.5-1.2 3.9-2.6 4.9-4.9 4.4-15.1-1-19.4-2.5-2-3.7-2-144.2-2H102.5l-4.2 2.1z"/></svg>