<?xml version="1.0" encoding="UTF-8" standalone="no"?><!-- Generator: Gravit.io --><svg xmlns="http://www.w3.org/2000/svg" xmlns:xlink="http://www.w3.org/1999/xlink" style="isolation:isolate" viewBox="706.768 382.653 74.732 70.347" width="74.732pt" height="70.347pt"><defs><clipPath id="_clipPath_Hov17WgIiM9nDEyt3yB0Cd6AIzV8arR7"><rect x="706.768" y="382.653" width="74.732" height="70.347"/></clipPath></defs><g clip-path="url(#_clipPath_Hov17WgIiM9nDEyt3yB0Cd6AIzV8arR7)"><g><path d=" M 759.447 389.847 C 759.447 392.029 757.526 393.807 755.187 393.807 C 752.847 393.807 750.926 392.029 750.926 389.847 C 750.926 387.664 752.847 385.886 755.187 385.886 C 757.526 385.886 759.447 387.648 759.447 389.847 L 759.447 389.847 Z  M 731.178 385.886 C 733.535 385.886 735.439 387.664 735.439 389.847 C 735.439 392.029 733.518 393.807 731.178 393.807 C 728.838 393.807 726.918 392.029 726.918 389.847 C 726.91 388.797 727.356 387.788 728.156 387.044 C 728.956 386.3 730.044 385.883 731.178 385.886 L 731.178 385.886 Z " fill="rgb(255,255,255)"/><path d=" M 726.08 392.805 C 727.145 394.373 729.031 395.407 731.161 395.407 C 733.227 395.402 735.147 394.417 736.245 392.796 C 737.344 391.176 737.468 389.147 736.574 387.422 C 738.651 387.034 740.851 386.84 743.139 386.84 C 745.444 386.84 747.661 387.034 749.756 387.422 C 748.862 389.147 748.986 391.176 750.085 392.796 C 751.183 394.417 753.103 395.402 755.169 395.407 C 757.282 395.407 759.15 394.389 760.215 392.837 C 760.53 393.419 760.687 394.001 760.687 394.599 C 760.687 398.802 752.637 402.358 743.121 402.358 C 733.605 402.358 725.556 398.802 725.556 394.599 C 725.591 394.001 725.748 393.403 726.08 392.805 L 726.08 392.805 Z " fill="rgb(129,141,153)"/><path d=" M 772.525 435.704 C 772.49 435.704 772.455 435.72 772.42 435.72 L 772.455 435.834 C 767.2 444.74 757.16 450.915 745.548 451.367 L 744.431 415.418 C 747.06 415.232 749.091 413.204 749.093 410.763 C 749.093 408.177 746.84 406.092 744.047 406.092 C 741.253 406.092 739.001 408.177 739.001 410.763 C 739.001 413.301 741.183 415.354 743.89 415.434 L 742.772 451.384 C 725.643 450.721 711.937 437.612 711.937 421.609 C 711.937 412.234 716.721 403.392 724.805 397.767 C 727.407 401.436 734.496 404.006 743.034 404.006 C 752.376 404.006 759.971 400.935 761.874 396.732 C 766.344 399.464 769.906 403.069 772.386 407.255 C 774.935 411.571 776.332 416.469 776.332 421.609 C 776.367 426.685 774.97 431.502 772.525 435.704 Z " fill="rgb(196,49,39)"/><path d=" M 731.178 392.336 C 732.802 392.336 734.112 391.124 734.112 389.62 C 734.112 388.117 732.802 386.905 731.178 386.905 C 729.554 386.905 728.245 388.117 728.245 389.62 C 728.245 391.124 729.554 392.336 731.178 392.336 Z  M 733.029 390.833 C 733.029 391.188 732.715 391.479 732.331 391.479 C 731.946 391.479 731.632 391.188 731.632 390.833 C 731.632 390.477 731.946 390.186 732.331 390.186 C 732.715 390.186 733.029 390.477 733.029 390.833 Z  M 730.532 387.632 C 731.3 387.632 731.912 388.198 731.912 388.909 C 731.912 389.62 731.3 390.186 730.532 390.186 C 729.764 390.186 729.153 389.62 729.153 388.909 C 729.153 388.198 729.781 387.632 730.532 387.632 Z  M 755.187 392.336 C 756.811 392.336 758.12 391.124 758.12 389.62 C 758.12 388.117 756.811 386.905 755.187 386.905 C 753.563 386.905 752.253 388.117 752.253 389.62 C 752.253 391.124 753.563 392.336 755.187 392.336 Z  M 757.038 390.833 C 757.038 391.188 756.723 391.479 756.339 391.479 C 755.955 391.479 755.641 391.188 755.641 390.833 C 755.641 390.477 755.955 390.186 756.339 390.186 C 756.723 390.186 757.038 390.477 757.038 390.833 Z  M 754.558 387.632 C 755.326 387.632 755.938 388.198 755.938 388.909 C 755.938 389.62 755.326 390.186 754.558 390.186 C 753.79 390.186 753.179 389.62 753.179 388.909 C 753.179 388.198 753.79 387.632 754.558 387.632 Z  M 730.008 403.538 C 733.291 404.766 734.566 408.92 732.872 412.8 C 731.178 416.695 727.127 418.845 723.845 417.617 C 720.562 416.388 719.287 412.234 720.981 408.355 C 722.675 404.459 726.726 402.309 730.008 403.538 L 730.008 403.538 Z  M 728.873 440.57 C 727.511 437.418 728.419 434.104 730.881 433.199 C 733.361 432.294 736.469 434.104 737.813 437.272 C 739.158 440.44 738.267 443.738 735.805 444.643 C 733.343 445.548 730.235 443.722 728.873 440.57 L 728.873 440.57 Z  M 734.723 418.037 C 736.923 418.037 738.721 420.251 738.721 422.999 C 738.721 425.747 736.923 427.962 734.723 427.962 C 732.523 427.962 730.724 425.747 730.724 422.999 C 730.724 420.251 732.523 418.037 734.723 418.037 Z  M 714.381 427.364 C 713.351 423.84 714.783 420.413 717.594 419.718 C 720.405 419.023 723.496 421.302 724.526 424.826 C 725.556 428.35 724.124 431.776 721.313 432.471 C 718.502 433.167 715.411 430.887 714.381 427.364 L 714.381 427.364 Z  M 758.295 403.521 C 761.577 402.293 765.611 404.443 767.322 408.338 C 769.033 412.234 767.741 416.372 764.458 417.6 C 761.176 418.829 757.142 416.679 755.431 412.784 C 753.72 408.888 755.012 404.75 758.295 403.521 Z  M 750.437 437.272 C 751.799 434.12 754.907 432.294 757.369 433.199 C 759.831 434.104 760.739 437.418 759.377 440.57 C 758.015 443.722 754.907 445.548 752.445 444.643 C 749.983 443.722 749.075 440.424 750.437 437.272 Z  M 753.563 418.037 C 755.763 418.037 757.561 420.251 757.561 422.999 C 757.561 425.747 755.763 427.962 753.563 427.962 C 751.363 427.962 749.564 425.747 749.564 422.999 C 749.564 420.251 751.363 418.037 753.563 418.037 Z  M 766.938 432.488 C 764.144 431.793 762.695 428.366 763.725 424.842 C 764.755 421.318 767.863 419.023 770.657 419.734 C 773.451 420.429 774.9 423.856 773.87 427.38 C 772.857 430.904 769.749 433.183 766.938 432.488 Z  M 780.173 423.484 C 781.046 422.87 781.5 421.9 781.5 420.558 L 781.5 413.091 L 779.405 413.091 L 779.405 420.558 C 779.405 421.027 779.317 421.641 778.933 421.916 C 778.741 422.062 778.462 422.11 778.2 422.126 L 778.2 421.577 C 778.2 416.55 776.89 411.587 774.411 407.142 C 774.9 407.013 775.424 406.803 775.913 406.431 C 777.432 405.316 778.2 403.263 778.2 400.305 L 778.2 397.993 L 776.105 397.993 L 776.105 400.305 C 776.105 402.584 775.598 404.168 774.638 404.895 C 774.166 405.251 773.66 405.332 773.311 405.348 C 770.605 401.194 766.85 397.654 762.415 395.035 C 762.433 394.89 762.433 394.744 762.433 394.599 C 762.433 393.354 761.961 392.158 761.019 391.027 C 761.411 389.379 760.976 387.656 759.836 386.34 C 758.696 385.024 756.974 384.257 755.152 384.254 L 755.152 382.653 C 748.744 382.653 744.798 383.235 743.139 384.448 C 741.498 383.252 737.551 382.653 731.126 382.653 L 731.126 384.254 C 727.808 384.254 725.119 386.759 725.119 389.83 C 725.119 390.218 725.172 390.606 725.242 390.978 C 724.281 392.126 723.792 393.338 723.792 394.599 C 723.792 395.165 723.897 395.73 724.089 396.264 C 720.497 398.722 717.459 401.808 715.149 405.348 C 714.852 405.364 714.224 405.332 713.648 404.895 C 712.687 404.168 712.181 402.584 712.181 400.305 L 712.181 397.993 L 710.086 397.993 L 710.086 400.305 C 710.086 403.247 710.854 405.316 712.373 406.431 C 712.914 406.835 713.508 407.061 714.049 407.175 C 711.605 411.571 710.26 416.501 710.26 421.577 L 710.26 422.126 C 709.946 422.126 709.597 422.094 709.352 421.916 C 708.951 421.641 708.881 421.027 708.881 420.558 L 708.881 413.091 L 706.786 413.091 L 706.786 420.558 C 706.786 421.884 707.222 422.87 708.113 423.484 C 708.794 423.953 709.579 424.082 710.208 424.082 L 710.348 424.082 C 710.365 424.195 710.365 424.325 710.383 424.438 C 709.719 424.406 708.846 424.519 708.095 425.02 C 707.222 425.634 706.768 426.604 706.768 427.946 L 706.768 435.413 L 708.863 435.413 L 708.863 427.946 C 708.863 427.477 708.951 426.863 709.335 426.588 C 709.684 426.345 710.278 426.361 710.627 426.41 C 711.186 429.74 712.303 432.892 713.892 435.785 C 713.386 435.914 712.844 436.125 712.338 436.496 C 710.819 437.612 710.051 439.665 710.051 442.623 L 710.051 444.934 L 712.146 444.934 L 712.146 442.623 C 712.146 440.343 712.652 438.759 713.613 438.032 C 714.102 437.66 714.643 437.579 714.975 437.579 C 720.894 446.809 731.772 453 744.186 453 C 756.601 453 767.462 446.809 773.381 437.579 C 773.695 437.612 774.132 437.709 774.551 438 C 775.528 438.711 776.035 440.311 776.035 442.606 L 776.035 444.918 L 778.13 444.918 L 778.13 442.606 C 778.13 439.665 777.362 437.596 775.843 436.48 C 775.424 436.17 774.944 435.939 774.428 435.801 C 776.035 432.892 777.17 429.707 777.711 426.361 C 778.06 426.329 778.532 426.345 778.829 426.555 C 779.23 426.83 779.3 427.444 779.3 427.913 L 779.3 435.381 L 781.395 435.381 L 781.395 427.913 C 781.395 426.588 780.959 425.602 780.068 424.987 C 779.387 424.519 778.602 424.389 777.955 424.389 C 777.973 424.276 777.973 424.163 777.99 424.034 C 778.724 424.082 779.492 423.953 780.173 423.484 L 780.173 423.484 Z  M 759.447 389.847 C 759.447 392.029 757.526 393.807 755.187 393.807 C 752.847 393.807 750.926 392.029 750.926 389.847 C 750.926 387.664 752.847 385.886 755.187 385.886 C 757.526 385.886 759.447 387.648 759.447 389.847 L 759.447 389.847 Z  M 754.628 384.286 C 753.144 384.415 751.817 385.046 750.839 385.999 C 749.023 385.628 747.12 385.385 745.147 385.288 C 746.404 384.836 749.058 384.318 754.628 384.286 L 754.628 384.286 Z  M 741.201 385.272 C 739.228 385.369 737.324 385.595 735.508 385.983 C 734.531 385.046 733.204 384.415 731.737 384.286 C 737.289 384.318 739.943 384.836 741.201 385.272 Z  M 731.178 385.886 C 733.535 385.886 735.439 387.664 735.439 389.847 C 735.439 392.029 733.518 393.807 731.178 393.807 C 728.838 393.807 726.918 392.029 726.918 389.847 C 726.91 388.797 727.356 387.788 728.156 387.044 C 728.956 386.3 730.044 385.883 731.178 385.886 L 731.178 385.886 Z  M 726.08 392.805 C 727.145 394.373 729.031 395.407 731.161 395.407 C 733.227 395.402 735.147 394.417 736.245 392.796 C 737.344 391.176 737.468 389.147 736.574 387.422 C 738.651 387.034 740.851 386.84 743.139 386.84 C 745.444 386.84 747.661 387.034 749.756 387.422 C 748.862 389.147 748.986 391.176 750.085 392.796 C 751.183 394.417 753.103 395.402 755.169 395.407 C 757.282 395.407 759.15 394.389 760.215 392.837 C 760.53 393.419 760.687 394.001 760.687 394.599 C 760.687 398.802 752.637 402.358 743.121 402.358 C 733.605 402.358 725.556 398.802 725.556 394.599 C 725.591 394.001 725.748 393.403 726.08 392.805 Z  M 772.612 435.704 C 772.578 435.704 772.543 435.72 772.508 435.72 L 772.543 435.834 C 767.287 444.74 757.247 450.915 745.636 451.367 L 744.518 415.418 C 747.147 415.232 749.179 413.204 749.18 410.763 C 749.18 408.177 746.928 406.092 744.134 406.092 C 741.34 406.092 739.088 408.177 739.088 410.763 C 739.088 413.301 741.271 415.354 743.977 415.434 L 742.859 451.384 C 725.73 450.721 712.024 437.612 712.024 421.609 C 712.024 412.234 716.808 403.392 724.892 397.767 C 727.494 401.436 734.583 404.006 743.121 404.006 C 752.463 404.006 760.058 400.935 761.961 396.732 C 766.431 399.464 769.993 403.069 772.473 407.255 C 775.022 411.571 776.419 416.469 776.419 421.609 C 776.454 426.685 775.057 431.502 772.612 435.704 L 772.612 435.704 Z " fill="rgb(31,17,10)"/></g></g></svg>